<svg width="84" height="35" viewBox="0 0 84 35" fill="none" xmlns="http://www.w3.org/2000/svg">
<path d="M6.41716 13.1023L8.31951 16.1594L11.7845 17.838L8.31951 19.5164L6.41716 22.5736L4.5148 19.5164L1.0498 17.838L4.5148 16.1594L6.41716 13.1023Z" fill="#F3AF1C"/>
<path d="M78.5708 13.1023L80.4732 16.1594L83.9381 17.838L80.4732 19.5164L78.5708 22.5736L76.6684 19.5164L73.2034 17.838L76.6684 16.1594L78.5708 13.1023Z" fill="#F3AF1C"/>
<path d="M42.6299 7.76696C41.5428 8.62618 40.637 9.34552 39.8444 10.2047C38.8705 11.2637 38.0552 12.4027 37.4211 13.6415C37.1946 14.1011 36.9228 14.241 36.3793 14.241C33.7295 14.221 31.0799 14.241 28.4301 14.221C27.8187 14.221 27.6376 14.3609 27.6376 14.9203C27.6601 17.6578 27.6376 20.3754 27.6601 23.1128C27.6828 26.0501 29.7889 27.8884 33.0728 27.9284C36.402 27.9683 38.5534 26.1701 38.6666 23.1927C38.7572 21.0147 38.644 18.8367 39.3234 16.6988C41.0446 11.3437 46.8876 7.30739 53.1381 7.14753C53.7044 7.12755 53.9081 7.24744 53.8856 7.78695C53.8403 9.42543 53.8629 11.0639 53.8856 12.7024C53.8856 13.0221 53.8856 13.2419 53.3873 13.2419C49.9903 13.2219 46.6611 15.7396 46.0044 19.5161C45.8458 20.4753 45.8458 21.4344 46.027 22.3934C46.8197 26.6696 44.9173 29.9666 41.0899 32.3643C35.7452 35.7013 27.5695 34.9819 23.244 30.9057C20.9113 28.7077 19.9601 26.0101 19.9376 23.0529C19.8923 18.1174 19.9148 13.182 19.9376 8.22654C19.9601 4.50996 22.8817 1.67258 26.9354 1.27294C27.547 1.213 27.6828 1.35287 27.6828 1.87239C27.6601 3.59082 27.7054 5.30923 27.6601 7.02764C27.6376 7.62709 27.8187 7.82691 28.5207 7.80693C32.9595 7.78695 37.4211 7.78695 41.8826 7.78695H42.6299V7.76696Z" fill="#0F113C"/>
<path d="M59.1171 23.3726C56.2861 23.3726 53.4553 23.3527 50.6243 23.3926C49.9902 23.3926 49.8318 23.2328 49.8543 22.6932C49.8996 21.3145 49.8996 19.9358 49.8543 18.5571C49.8318 17.9775 50.013 17.8177 50.6696 17.8177C53.8177 17.8577 56.9655 17.8177 60.1363 17.8377C60.7704 17.8377 60.9063 17.7378 60.6345 17.1984C59.9777 15.8996 59.0265 14.8205 57.5996 14.1411C57.0335 13.8814 56.8977 13.5617 56.8977 13.0422C56.9202 11.4037 56.9429 9.7652 56.8977 8.1267C56.8749 7.50728 57.0335 7.38739 57.7355 7.54725C63.3069 8.80608 67.4512 12.9223 68.3345 18.1375C68.5835 19.6561 68.6516 21.1946 68.5382 22.7132C68.493 23.2727 68.2665 23.3726 67.7004 23.3726C64.8241 23.3527 61.9706 23.3726 59.1171 23.3726Z" fill="#F3AF1C"/>
<path d="M48.9033 26.8295C51.1227 28.3281 53.5458 28.6477 56.1276 28.0084C57.5317 27.6486 58.6866 26.9893 59.5699 25.9503C59.8417 25.6306 60.136 25.4907 60.589 25.4907C62.7631 25.5107 64.9372 25.5307 67.1341 25.4907C67.8588 25.4708 67.8813 25.6905 67.6776 26.21C65.7752 30.7658 62.0384 33.3834 56.6937 34.2227C53.0703 34.8021 49.6052 34.3425 46.3668 32.7441C45.8233 32.4842 45.6194 32.3243 46.1176 31.8049C47.4311 30.3463 48.2917 28.6677 48.9033 26.8295Z" fill="#F3AF1C"/>
</svg>
